<svg xmlns="http://www.w3.org/2000/svg" xmlns:xlink="http://www.w3.org/1999/xlink" width="44" height="56" version="1.1" viewBox="0 0 44 56"><title>File</title><desc>Created with Sketch.</desc><defs><path id="path-1" d="M27.4611409,10.6408637 C27.795393,10.9983288 28,11.4785445 28,12.0065487 C28,12.0141465 28,20.3474799 28,37.0065487 C28,38.663403 26.6568542,40.0065487 25,40.0065487 L3,40.0065487 C1.34314575,40.0065487 2.02906125e-16,38.663403 0,37.0065487 L0,3.00654871 C-2.02906125e-16,1.34969446 1.34314575,0.00654871324 3,0.00654871324 L16.0265395,0 C16.5865346,0.0158576852 17.0851294,0.249509571 17.4418757,0.620545804 C17.7827796,0.975104947 27.0961475,10.2505223 27.4611409,10.6408637 Z"/><filter id="filter-3" width="200%" height="170%" x="-50%" y="-30%" filterUnits="objectBoundingBox"><feOffset dx="0" dy="2" in="SourceAlpha" result="shadowOffsetOuter1"/><feGaussianBlur in="shadowOffsetOuter1" result="shadowBlurOuter1" stdDeviation="4"/><feColorMatrix in="shadowBlurOuter1" result="shadowMatrixOuter1" type="matrix" values="0 0 0 0 0 0 0 0 0 0 0 0 0 0 0 0 0 0 0.08 0"/><feMorphology in="SourceAlpha" operator="dilate" radius=".5" result="shadowSpreadOuter2"/><feOffset dx="0" dy="0" in="shadowSpreadOuter2" result="shadowOffsetOuter2"/><feColorMatrix in="shadowOffsetOuter2" result="shadowMatrixOuter2" type="matrix" values="0 0 0 0 0 0 0 0 0 0 0 0 0 0 0 0 0 0 0.12 0"/><feMerge><feMergeNode in="shadowMatrixOuter1"/><feMergeNode in="shadowMatrixOuter2"/></feMerge></filter><path id="path-4" d="M16,0.00654871324 L28,0.00654871324 L28,12.0065487 C28,10.9019792 27.1045695,10.0065487 26,10.0065487 L21,10.0065487 C19.3431458,10.0065487 18,8.66340296 18,7.00654871 L18,2.00654871 C18,0.901979214 17.1045695,0.00654871324 16,0.00654871324 Z"/><filter id="filter-5" width="216.7%" height="216.7%" x="-58.3%" y="-41.7%" filterUnits="objectBoundingBox"><feOffset dx="0" dy="2" in="SourceAlpha" result="shadowOffsetOuter1"/><feGaussianBlur in="shadowOffsetOuter1" result="shadowBlurOuter1" stdDeviation="2"/><feColorMatrix in="shadowBlurOuter1" type="matrix" values="0 0 0 0 0 0 0 0 0 0 0 0 0 0 0 0 0 0 0.12 0"/></filter><filter id="filter-6" width="175%" height="175%" x="-37.5%" y="-20.8%" filterUnits="objectBoundingBox"><feMorphology in="SourceAlpha" operator="erode" radius="1" result="shadowSpreadInner1"/><feOffset dx="0" dy="0" in="shadowSpreadInner1" result="shadowOffsetInner1"/><feComposite in="shadowOffsetInner1" in2="SourceAlpha" k2="-1" k3="1" operator="arithmetic" result="shadowInnerInner1"/><feColorMatrix in="shadowInnerInner1" type="matrix" values="0 0 0 0 0 0 0 0 0 0 0 0 0 0 0 0 0 0 0.12 0"/></filter></defs><g id="Desktop-Light" fill="none" fill-rule="evenodd" stroke="none" stroke-width="1"><g id="Desktop-Light/Primitives/File" transform="translate(8.000000, 6.000000)"><g id="File"><mask id="mask-2" fill="#fff"><use xlink:href="#path-1"/></mask><g id="Combined-Shape"><use fill="#000" fill-opacity="1" filter="url(#filter-3)" xlink:href="#path-1"/><use fill="#FFF" fill-rule="evenodd" xlink:href="#path-1"/></g><g id="Combined-Shape" mask="url(#mask-2)"><use fill="#000" fill-opacity="1" filter="url(#filter-5)" xlink:href="#path-4"/><use fill="#FFF" fill-rule="evenodd" xlink:href="#path-4"/><use fill="#000" fill-opacity="1" filter="url(#filter-6)" xlink:href="#path-4"/></g></g></g></g></svg>